<svg xmlns="http://www.w3.org/2000/svg" width="16" height="28" viewBox="0 0 16 28" fill="none">
  <g stroke="#d4af37" fill="none" stroke-linecap="round" stroke-linejoin="round">
    <!-- === TOP HALF === -->
    <path d="M 16 5 C 13 5, 12 3, 11 2 C 9 1, 7 3, 8 5 C 9 6, 11 6, 11 4" stroke-width="0.7"/>
    <path d="M 8 5 C 6 6, 5 8, 6 10 C 7 11, 9 11, 8 8" stroke-width="0.55"/>
    <path d="M 8 10 Q 9 12, 10 14" stroke-width="0.45"/>
    <path d="M 11 4 Q 12 6, 14 7" stroke-width="0.4" opacity="0.75"/>

    <!-- === BOTTOM HALF === -->
    <path d="M 16 23 C 13 23, 12 25, 11 26 C 9 27, 7 25, 8 23 C 9 22, 11 22, 11 24" stroke-width="0.7"/>
    <path d="M 8 23 C 6 22, 5 20, 6 18 C 7 17, 9 17, 8 20" stroke-width="0.55"/>
    <path d="M 8 18 Q 9 16, 10 14" stroke-width="0.45"/>
    <path d="M 11 24 Q 12 22, 14 21" stroke-width="0.4" opacity="0.75"/>
  </g>
  <g fill="#d4af37">
    <circle cx="11" cy="2" r="0.5"/>
    <circle cx="8" cy="5" r="0.45"/>
    <circle cx="6" cy="10" r="0.4"/>
    <circle cx="10" cy="14" r="0.45"/>
    <circle cx="11" cy="26" r="0.5"/>
    <circle cx="8" cy="23" r="0.45"/>
    <circle cx="6" cy="18" r="0.4"/>
  </g>
</svg>
