<svg xmlns="http://www.w3.org/2000/svg" width="16" height="28" viewBox="0 0 16 28" fill="none">
  <g stroke="#d4af37" fill="none" stroke-linecap="round" stroke-linejoin="round">
    <!-- === TOP HALF === -->
    <path d="M 0 5 C 3 5, 4 3, 5 2 C 7 1, 9 3, 8 5 C 7 6, 5 6, 5 4" stroke-width="0.7"/>
    <path d="M 8 5 C 10 6, 11 8, 10 10 C 9 11, 7 11, 8 8" stroke-width="0.55"/>
    <path d="M 8 10 Q 7 12, 6 14" stroke-width="0.45"/>
    <path d="M 5 4 Q 4 6, 2 7" stroke-width="0.4" opacity="0.75"/>

    <!-- === BOTTOM HALF === -->
    <path d="M 0 23 C 3 23, 4 25, 5 26 C 7 27, 9 25, 8 23 C 7 22, 5 22, 5 24" stroke-width="0.7"/>
    <path d="M 8 23 C 10 22, 11 20, 10 18 C 9 17, 7 17, 8 20" stroke-width="0.55"/>
    <path d="M 8 18 Q 7 16, 6 14" stroke-width="0.45"/>
    <path d="M 5 24 Q 4 22, 2 21" stroke-width="0.4" opacity="0.75"/>
  </g>
  <g fill="#d4af37">
    <circle cx="5" cy="2" r="0.5"/>
    <circle cx="8" cy="5" r="0.45"/>
    <circle cx="10" cy="10" r="0.4"/>
    <circle cx="6" cy="14" r="0.45"/>
    <circle cx="5" cy="26" r="0.5"/>
    <circle cx="8" cy="23" r="0.45"/>
    <circle cx="10" cy="18" r="0.4"/>
  </g>
</svg>
