<svg xmlns="http://www.w3.org/2000/svg" width="60" height="28" viewBox="0 0 60 28" fill="none">
  <defs>
    <linearGradient id="iceCrack" x1="0" y1="0" x2="0" y2="1">
      <stop offset="0" stop-color="#e0f4ff" stop-opacity="0.9"/>
      <stop offset="1" stop-color="#88c5e8" stop-opacity="0.55"/>
    </linearGradient>
  </defs>

  <!-- === TOP EDGE === -->
  <g stroke="url(#iceCrack)" stroke-linecap="round" fill="none">
    <path d="M 3 0 L 7 4 L 12 2 L 16 6 L 14 10 L 20 8 L 24 4 L 28 0" stroke-width="0.5"/>
    <path d="M 32 0 L 36 5 L 42 2 L 46 6 L 50 3 L 55 0" stroke-width="0.5"/>
    <path d="M 7 4 L 9 8" stroke-width="0.3" opacity="0.7"/>
    <path d="M 20 8 L 22 12" stroke-width="0.3" opacity="0.7"/>
    <path d="M 36 5 L 38 9" stroke-width="0.3" opacity="0.7"/>
    <path d="M 46 6 L 48 10" stroke-width="0.3" opacity="0.7"/>
  </g>

  <!-- === BOTTOM EDGE === -->
  <g stroke="url(#iceCrack)" stroke-linecap="round" fill="none">
    <path d="M 0 28 L 5 24 L 9 26 L 13 22 L 19 24 L 24 28" stroke-width="0.5"/>
    <path d="M 30 28 L 34 24 L 40 26 L 45 22 L 50 26 L 55 28" stroke-width="0.5"/>
    <path d="M 9 26 L 11 21" stroke-width="0.3" opacity="0.7"/>
    <path d="M 19 24 L 17 20" stroke-width="0.3" opacity="0.7"/>
    <path d="M 34 24 L 32 20" stroke-width="0.3" opacity="0.7"/>
    <path d="M 45 22 L 43 18" stroke-width="0.3" opacity="0.7"/>
  </g>

  <g fill="#e0f4ff">
    <circle cx="10" cy="14" r="0.4" opacity="0.9"/>
    <circle cx="26" cy="11" r="0.3" opacity="0.75"/>
    <circle cx="44" cy="13" r="0.4" opacity="0.85"/>
    <circle cx="56" cy="15" r="0.3" opacity="0.8"/>
    <circle cx="18" cy="19" r="0.3" opacity="0.7"/>
    <circle cx="36" cy="17" r="0.4" opacity="0.85"/>
  </g>
</svg>
