<svg xmlns="http://www.w3.org/2000/svg" width="16" height="28" viewBox="0 0 16 28" fill="none">
  <g opacity="0.92">
    <circle cx="6" cy="14" r="5.5" fill="none" stroke="#d4af37" stroke-width="0.5"/>
    <path d="M 6 9.5 Q 7.5 11 6 12.5 Q 4.5 11 6 9.5 Z" fill="#d4af37" opacity="0.55"/>
    <path d="M 6 15.5 Q 7.5 17 6 18.5 Q 4.5 17 6 15.5 Z" fill="#d4af37" opacity="0.55"/>
    <path d="M 1.5 14 Q 3 15.5 4.5 14 Q 3 12.5 1.5 14 Z" fill="#d4af37" opacity="0.55"/>
    <path d="M 7.5 14 Q 9 15.5 10.5 14 Q 9 12.5 7.5 14 Z" fill="#d4af37" opacity="0.55"/>
    <circle cx="6" cy="14" r="1.3" fill="none" stroke="#d4af37" stroke-width="0.5"/>
    <circle cx="6" cy="14" r="0.6" fill="#d4af37"/>
    <circle cx="6" cy="4" r="0.4" fill="#d4af37" opacity="0.85"/>
    <circle cx="6" cy="24" r="0.4" fill="#d4af37" opacity="0.85"/>
    <line x1="6" y1="5" x2="6" y2="8" stroke="#d4af37" stroke-width="0.35" opacity="0.7"/>
    <line x1="6" y1="20" x2="6" y2="23" stroke="#d4af37" stroke-width="0.35" opacity="0.7"/>
  </g>
</svg>
